<?xml version="1.0" encoding="iso-8859-1"?>
<!-- Generator: Adobe Illustrator 19.0.0, SVG Export Plug-In . SVG Version: 6.00 Build 0)  -->
<svg version="1.1" id="Layer_1" xmlns="http://www.w3.org/2000/svg" xmlns:xlink="http://www.w3.org/1999/xlink" x="0px" y="0px"
	 viewBox="0 0 512 512" style="enable-background:new 0 0 512 512;" xml:space="preserve">
<g transform="translate(1 1)">
	<path style="fill:#FFE100;" d="M502.467,255c0,136.533-110.933,247.467-247.467,247.467S7.533,391.533,7.533,255
		S118.467,7.533,255,7.533S502.467,118.467,502.467,255"/>
	<path style="fill:#FFA800;" d="M255,7.533c-4.267,0-8.533,0-12.8,0C372.76,14.36,476.867,122.733,476.867,255
		S372.76,495.64,242.2,502.467c4.267,0,8.533,0,12.8,0c136.533,0,247.467-110.933,247.467-247.467S391.533,7.533,255,7.533"/>
	<path style="fill:#FFFFFF;" d="M255,7.533c4.267,0,8.533,0,12.8,0C137.24,14.36,33.133,122.733,33.133,255
		S137.24,495.64,267.8,502.467c-4.267,0-8.533,0-12.8,0C118.467,502.467,7.533,391.533,7.533,255S118.467,7.533,255,7.533"/>
	<path style="fill:#63D3FD;" d="M321.56,365.933c-4.267,0-8.533-1.707-11.093-4.267c-15.36-13.653-34.133-21.333-55.467-21.333
		s-40.107,7.68-54.613,21.333c-3.413,2.56-6.827,4.267-11.093,4.267h-0.853c-10.24,0-18.773-9.387-16.213-19.627
		C180.76,308.76,214.893,280.6,255,280.6s74.24,28.16,82.773,65.707C340.333,356.547,332.653,365.933,321.56,365.933L321.56,365.933
		z"/>
	<path style="fill:#3DB9F9;" d="M339.48,346.307c-8.533-37.547-42.667-65.707-82.773-65.707c-4.267,0-7.68,0-11.947,0.853
		c34.987,5.12,63.147,30.72,70.827,64.853c1.707,5.973-0.853,11.093-4.267,15.36l0,0c3.413,2.56,7.68,4.267,11.947,4.267l0,0
		C334.36,365.933,342.04,356.547,339.48,346.307"/>
	<g>
		<path style="fill:#63D3FD;" d="M383,161.133c0,18.773-15.36,34.133-34.133,34.133s-34.133-15.36-34.133-34.133
			S330.093,127,348.867,127C367.64,127,383,142.36,383,161.133"/>
		<path style="fill:#63D3FD;" d="M127,161.133c0,18.773,15.36,34.133,34.133,34.133s34.133-15.36,34.133-34.133
			S179.907,127,161.133,127S127,142.36,127,161.133"/>
	</g>
	<path d="M321.56,374.467L321.56,374.467c-6.827,0-12.8-2.56-17.92-6.827c-13.653-11.947-30.72-18.773-48.64-18.773
		s-34.987,6.827-49.493,18.773c-5.12,4.267-11.093,6.827-17.067,6.827c-8.533,0-15.36-3.413-20.48-9.387
		c-4.267-5.973-5.973-13.653-4.267-20.48c10.24-42.667,47.787-71.68,91.307-71.68s81.067,29.867,91.307,71.68
		c1.707,6.827,0,14.507-4.267,20.48C336.92,371.053,329.24,374.467,321.56,374.467z M255,331.8c22.187,0,43.52,7.68,60.587,23.04
		c1.707,1.707,3.413,2.56,5.973,2.56h0.853c2.56,0,5.12-0.853,6.827-3.413c0.853-0.853,2.56-3.413,1.707-5.973
		c-8.533-34.987-39.253-58.88-75.093-58.88s-66.56,23.893-75.093,58.88c-0.853,2.56,0.853,5.12,1.707,5.973
		c3.413,4.267,9.387,4.267,12.8,0.853C211.48,339.48,232.813,331.8,255,331.8z"/>
	<path d="M255,511C114.2,511-1,395.8-1,255S114.2-1,255-1s256,115.2,256,256S395.8,511,255,511z M255,16.067
		C123.587,16.067,16.067,123.587,16.067,255S123.587,493.933,255,493.933S493.933,386.413,493.933,255S386.413,16.067,255,16.067z"
		/>
	<path d="M348.867,203.8c-23.893,0-42.667-18.773-42.667-42.667s18.773-42.667,42.667-42.667c23.893,0,42.667,18.773,42.667,42.667
		S372.76,203.8,348.867,203.8z M348.867,135.533c-14.507,0-25.6,11.093-25.6,25.6s11.093,25.6,25.6,25.6
		c14.507,0,25.6-11.093,25.6-25.6C374.467,146.627,363.373,135.533,348.867,135.533z"/>
	<path d="M297.667,172.227c-2.56,0-4.267-0.853-5.973-2.56c-3.413-3.413-3.413-8.533,0-11.947l60.587-60.587
		c3.413-3.413,8.533-3.413,11.947,0c3.413,3.413,3.413,8.533,0,11.947l-60.587,60.587
		C301.933,171.373,300.227,172.227,297.667,172.227z"/>
	<path d="M161.133,203.8c-23.893,0-42.667-18.773-42.667-42.667s18.773-42.667,42.667-42.667S203.8,137.24,203.8,161.133
		S185.027,203.8,161.133,203.8z M161.133,135.533c-14.507,0-25.6,11.093-25.6,25.6s11.093,25.6,25.6,25.6s25.6-11.093,25.6-25.6
		C186.733,146.627,175.64,135.533,161.133,135.533z"/>
	<path d="M212.333,172.227c-2.56,0-4.267-0.853-5.973-2.56l-60.587-60.587c-3.413-3.413-3.413-8.533,0-11.947s8.533-3.413,11.947,0
		l60.587,60.587c3.413,3.413,3.413,8.533,0,11.947C216.6,172.227,214.893,172.227,212.333,172.227z"/>
	<path d="M203.8,412.867c-2.56,0-5.12-0.853-5.973-2.56c-3.413-3.413-2.56-8.533,0.853-11.947c17.067-15.36,38.4-23.04,60.587-23.04
		s43.52,7.68,60.587,23.04c3.413,3.413,4.267,8.533,0.853,11.947c-3.413,3.413-8.533,4.267-11.947,0.853
		c-13.653-12.8-30.72-18.773-49.493-18.773c-17.92,0-34.987,6.827-49.493,18.773C208.067,412.013,205.507,412.867,203.8,412.867z"/>
</g>
<g>
</g>
<g>
</g>
<g>
</g>
<g>
</g>
<g>
</g>
<g>
</g>
<g>
</g>
<g>
</g>
<g>
</g>
<g>
</g>
<g>
</g>
<g>
</g>
<g>
</g>
<g>
</g>
<g>
</g>
</svg>
